<svg xmlns="http://www.w3.org/2000/svg" viewBox="0 0 42.52 49.1"><defs><style>.cls-1{fill:#ccc;}.cls-2{fill:#333;}</style></defs><title>accueil</title><g id="Calque_2" data-name="Calque 2"><g id="Calque_1-2" data-name="Calque 1"><polygon class="cls-1" points="0 12.27 21.26 0 42.52 12.27 42.52 36.82 21.26 49.1 0 36.82 0 12.27"/><path d="M35.43,24.88c-.38.46-.75.93-1.14,1.38a.59.59,0,0,1-.95.09L22.27,17.12l-1-.84-.32.26L9.26,26.29c-.45.37-.71.35-1.09-.1l-.87-1a.59.59,0,0,1,.09-1l12.05-10,.41-.34a2.13,2.13,0,0,1,2.81,0l3.95,3.29.27.22c0-.14,0-.23,0-.32V14c0-.52.18-.7.7-.7h3.1c.51,0,.7.19.7.71v6.78a.49.49,0,0,0,.19.42Q33.3,22.64,35,24.07c.15.13.28.28.42.42Z"/>
<path class="cls-2" d="M19,35.83H12.45a1.16,1.16,0,0,1-1.31-1.31c0-2.68,0-5.35,0-8a.57.57,0,0,1,.24-.51L21,18l.24-.19.21.15,9.74,8a.46.46,0,0,1,.18.39v8.22a1.13,1.13,0,0,1-1.18,1.2c-2.16,0-4.33,0-6.5,0l-.19,0V29.1H19Z"/></g></g></svg>
