<svg xmlns="http://www.w3.org/2000/svg" viewBox="0 0 231.57 98.19"><defs><style>.cls-1{fill:#29abe2;}.cls-2{fill:#333;}</style></defs><title>polices-ajout</title><g id="Calque_2" data-name="Calque 2"><g id="Calque_1-2" data-name="Calque 1"><path d="M209.57,85.84l17.26-8.36-17.26-8.35v-3.7l22,10.67v2.77l-22,10.66Z"/><path class="cls-1" d="M13.86,3.46h5.27L29,45H22.66L20.8,36H12.18L10.32,45H4Zm2.66,12H16.4l-3.1,15h6.32Z"/><path class="cls-1" d="M46.78,35.17A10.29,10.29,0,0,1,46,39a9.79,9.79,0,0,1-2.14,3.24,10.17,10.17,0,0,1-3.38,2.21,11.92,11.92,0,0,1-4.53.82,9.36,9.36,0,0,1-5.05-1.26,16.53,16.53,0,0,1-3.19-2.47l5-3.73a6.36,6.36,0,0,0,1.58,1.07,4.16,4.16,0,0,0,1.89.44,5.29,5.29,0,0,0,1.3-.2,3.71,3.71,0,0,0,1.4-.76A4.54,4.54,0,0,0,40,36.88a5.83,5.83,0,0,0,.47-2.53V3.46h6.32Z"/><path class="cls-1" d="M52.36,13.25a10.09,10.09,0,0,1,.93-4.43,9.27,9.27,0,0,1,2.45-3.17,10.68,10.68,0,0,1,3.41-1.9,11.66,11.66,0,0,1,7.62,0,10.68,10.68,0,0,1,3.41,1.9,9.15,9.15,0,0,1,2.45,3.17,10.09,10.09,0,0,1,.93,4.43V35.17a10,10,0,0,1-.93,4.45,9.17,9.17,0,0,1-2.45,3.15,10.68,10.68,0,0,1-3.41,1.9,11.66,11.66,0,0,1-7.62,0,10.68,10.68,0,0,1-3.41-1.9,9.29,9.29,0,0,1-2.45-3.15,10,10,0,0,1-.93-4.45Zm6.32,21.92A3.85,3.85,0,0,0,60,38.34a5,5,0,0,0,6,0,3.85,3.85,0,0,0,1.27-3.17V13.25A3.85,3.85,0,0,0,66,10.08a5,5,0,0,0-6,0,3.85,3.85,0,0,0-1.27,3.17Z"/><path class="cls-1" d="M99.6,35.63a9.07,9.07,0,0,1-.8,3.79,9.72,9.72,0,0,1-2.2,3.06,10.66,10.66,0,0,1-3.26,2.07,10.75,10.75,0,0,1-7.94,0,10.73,10.73,0,0,1-3.25-2.07A9.72,9.72,0,0,1,80,39.42a8.92,8.92,0,0,1-.81-3.79V3.46h6.33V35.05a4.29,4.29,0,0,0,1.11,3.26,4.23,4.23,0,0,0,5.58,0,4.25,4.25,0,0,0,1.12-3.26V3.46H99.6Z"/><path class="cls-1" d="M109.71,9.06h-7.32V3.46h21v5.6H116V45h-6.32Z"/><path class="cls-1" d="M126.14,3.46H145v5.6H132.46V21.24h10.91v5.59H132.46V39H145v6H126.14Z"/><path class="cls-1" d="M149.08,3.46h10.17q11.16,0,11.16,12.18a14.7,14.7,0,0,1-1.21,6.21A9.1,9.1,0,0,1,165,26L171.77,45h-6.7l-5.89-17.72H155.4V45h-6.32ZM155.4,22H159a6.73,6.73,0,0,0,2.66-.44,3.34,3.34,0,0,0,1.52-1.26,5.19,5.19,0,0,0,.72-2,18.69,18.69,0,0,0,.18-2.76,18.74,18.74,0,0,0-.18-2.77,4.89,4.89,0,0,0-.78-2,3.48,3.48,0,0,0-1.64-1.26,8,8,0,0,0-2.79-.4H155.4Z"/><path class="cls-2" d="M9.86.35h5.27L25,41.84H18.66L16.8,32.93H8.18L6.32,41.84H0Zm2.66,12H12.4l-3.1,15h6.32Z"/><path class="cls-2" d="M42.78,32.05A10.34,10.34,0,0,1,42,35.93a9.75,9.75,0,0,1-2.14,3.23,10.19,10.19,0,0,1-3.38,2.22,11.92,11.92,0,0,1-4.53.81,9.36,9.36,0,0,1-5-1.25,16.16,16.16,0,0,1-3.19-2.48l5-3.73a6.13,6.13,0,0,0,1.58,1.08,4.3,4.3,0,0,0,1.89.44,5.29,5.29,0,0,0,1.3-.2,3.71,3.71,0,0,0,1.4-.76A4.64,4.64,0,0,0,36,33.77a5.83,5.83,0,0,0,.47-2.53V.35h6.32Z"/><path class="cls-2" d="M48.36,10.14a10.05,10.05,0,0,1,.93-4.43,9.27,9.27,0,0,1,2.45-3.17A10.68,10.68,0,0,1,55.15.64a11.66,11.66,0,0,1,7.62,0,10.68,10.68,0,0,1,3.41,1.9,9.15,9.15,0,0,1,2.45,3.17,10.05,10.05,0,0,1,.93,4.43V32.05a10,10,0,0,1-.93,4.46,9.26,9.26,0,0,1-2.45,3.15,10.46,10.46,0,0,1-3.41,1.89,11.66,11.66,0,0,1-7.62,0,10.46,10.46,0,0,1-3.41-1.89,9.39,9.39,0,0,1-2.45-3.15,10,10,0,0,1-.93-4.46Zm6.32,21.91A3.85,3.85,0,0,0,56,35.23a5,5,0,0,0,6,0,3.85,3.85,0,0,0,1.27-3.18V10.14A3.85,3.85,0,0,0,62,7a5,5,0,0,0-6,0,3.85,3.85,0,0,0-1.27,3.18Z"/><path class="cls-2" d="M95.6,32.52a9.07,9.07,0,0,1-.8,3.79,10,10,0,0,1-2.2,3.06,10.66,10.66,0,0,1-3.26,2.07,10.88,10.88,0,0,1-7.94,0,10.73,10.73,0,0,1-3.25-2.07A10,10,0,0,1,76,36.31a8.92,8.92,0,0,1-.81-3.79V.35h6.33V31.94a4.3,4.3,0,0,0,1.11,3.26,4.23,4.23,0,0,0,5.58,0,4.27,4.27,0,0,0,1.12-3.26V.35H95.6Z"/><path class="cls-2" d="M105.71,5.94H98.39V.35h21V5.94H112v35.9h-6.32Z"/><path class="cls-2" d="M122.14.35H141V5.94H128.46V18.12h10.91v5.6H128.46V35.9H141v5.94H122.14Z"/><path class="cls-2" d="M145.08.35h10.17q11.16,0,11.16,12.18a14.7,14.7,0,0,1-1.21,6.21A9.08,9.08,0,0,1,161,22.9l6.82,18.94h-6.7l-5.89-17.71H151.4V41.84h-6.32Zm6.32,18.53H155a6.74,6.74,0,0,0,2.66-.43,3.4,3.4,0,0,0,1.52-1.26,5.19,5.19,0,0,0,.72-2,18.74,18.74,0,0,0,.18-2.77,18.6,18.6,0,0,0-.18-2.76,4.89,4.89,0,0,0-.78-2,3.42,3.42,0,0,0-1.64-1.26,8,8,0,0,0-2.79-.41H151.4Z"/><path class="cls-2" d="M23.31,88.52a9.07,9.07,0,0,1-.8,3.79,10.12,10.12,0,0,1-2.2,3.06,10.66,10.66,0,0,1-3.26,2.07,10.5,10.5,0,0,1-4,.75,10.44,10.44,0,0,1-7.22-2.82,9.79,9.79,0,0,1-2.2-3.06,8.92,8.92,0,0,1-.81-3.79V56.35H9.18V87.94a4.3,4.3,0,0,0,1.11,3.26,3.93,3.93,0,0,0,2.79,1,3.9,3.9,0,0,0,2.79-1A4.27,4.27,0,0,0,17,87.94V56.35h6.32Z"/><path class="cls-2" d="M29,56.35h6.07l9.55,25h.12v-25h6.33V97.84h-6L35.46,72.9h-.12V97.84H29Z"/><path class="cls-2" d="M68.32,56.35H74.4l8.12,22h.12l8.06-22h6.14V97.84H90.52V72.61h-.13L84.13,90.44H81l-6.2-17.83h-.12V97.84H68.32Z"/><path class="cls-2" d="M109.8,56.35h5.27l9.86,41.49H118.6l-1.86-8.91h-8.61l-1.86,8.91H99.94Zm2.67,11.95h-.13l-3.1,15h6.33Z"/>
<path class="cls-2" d="M128.77,61.94h-7.31V56.35h21v5.59H135.1v35.9h-6.33Z"/>
<path class="cls-2" d="M165.29,88.58a8.93,8.93,0,0,1-.78,3.67,9.52,9.52,0,0,1-2.13,3.06,10.83,10.83,0,0,1-3.2,2.1,9.92,9.92,0,0,1-3.93.78,15,15,0,0,1-3.66-.46,9.06,9.06,0,0,1-3.35-1.61,8.62,8.62,0,0,1-2.45-3,10.24,10.24,0,0,1-1-4.72V65.56a9.67,9.67,0,0,1,.74-3.79,8.85,8.85,0,0,1,2.11-3,9.63,9.63,0,0,1,3.26-2,11.43,11.43,0,0,1,4.18-.73,10.85,10.85,0,0,1,4,.73,9.55,9.55,0,0,1,3.23,2,9.28,9.28,0,0,1,2.13,3.15,10.07,10.07,0,0,1,.78,4v2.33H159v-2a4.62,4.62,0,0,0-1.06-3,3.48,3.48,0,0,0-2.85-1.29c-1.57,0-2.62.46-3.13,1.37a7,7,0,0,0-.78,3.47V88a5.25,5.25,0,0,0,.84,3,3.4,3.4,0,0,0,3,1.22,5.11,5.11,0,0,0,1.33-.2,3.83,3.83,0,0,0,1.3-.67,3.31,3.31,0,0,0,1-1.29,4.86,4.86,0,0,0,.38-2V86h6.32Z"/>
<path class="cls-2" d="M170.44,56.35h6.32V74.12h7.81V56.35h6.33V97.84h-6.33V79.37h-7.81V97.84h-6.32Z"/></g></g></svg>
