<svg width="50" height="50" xmlns="http://www.w3.org/2000/svg">
 <style>.cls-2{fill:#333;}.bckg{fill:#ededed;}</style>

 <title>clove</title>
 <g>
  <title>background</title>
  <rect x="-1" y="-1" width="52" height="52" id="canvas_background" class="bckg"/>
 </g>
 <g>
  <title>Layer 1</title>
  <g stroke="null" id="Calque_2">
   <g stroke="null" id="Calque_1-2">
    <path stroke="null" class="cls-2" d="m34.65458,44.130001l-18.293915,0l0.143565,0a5.865536,5.663379 0 0 0 1.948343,-0.51485a6.808943,6.574272 0 0 0 2.789207,-2.613864a14.192136,13.703001 0 0 0 1.702236,-4.39605a29.573794,28.554524 0 0 0 0.533228,-4.118822l0,-1.009908l0,0a14.909951,14.396072 0 0 0 -3.178871,2.297036a8.080493,7.802001 0 0 1 -10.008329,1.504958a8.777793,8.475264 0 0 1 -4.101779,-9.02973a8.470165,8.178236 0 0 1 7.075565,-6.633679a7.957443,7.683186 0 0 1 7.034543,2.475258a16.407093,15.841623 0 0 0 2.789207,2.178221l0.143556,0a1.661222,1.603964 0 0 0 0,-0.217821a15.894372,15.346573 0 0 0 -3.58905,-5.940607a8.716272,8.415865 0 0 1 -2.440558,-7.287151a8.449658,8.158436 0 0 1 2.563607,-4.871301a8.203551,7.920807 0 0 1 8.982886,-1.564357a8.429143,8.138637 0 0 1 5.0862,7.247544a8.552201,8.257443 0 0 1 -2.461064,6.495065a13.966544,13.485179 0 0 0 -1.927836,2.376243a14.028064,13.544587 0 0 0 -1.784271,3.623772l0,0.198022a16.59168,16.019836 0 0 0 2.994301,-2.237629a7.957443,7.683186 0 0 1 7.670314,-2.336644a8.777793,8.475264 0 0 1 5.516886,12.49508a8.059986,7.782193 0 0 1 -7.895914,4.059414a7.75235,7.485165 0 0 1 -5.168236,-2.376243a15.873865,15.326773 0 0 0 -3.199386,-2.45545l-0.164063,0l0,0.178222c0,0.633664 0,1.247529 0,1.861385a22.559758,21.78223 0 0 0 0.820349,4.534665a12.100237,11.683193 0 0 0 1.907329,3.801994a5.906558,5.702987 0 0 0 3.445485,2.237629c0.389672,-0.039608 0.697308,-0.0198 1.066465,0.039608l0,-0.000008z" id="svg_1"/>
   </g>
  </g>
 </g>
</svg>