<svg width="50" height="50" xmlns="http://www.w3.org/2000/svg">
 <style>.bckg{fill:#9A9999;}</style>

 <title>heart</title>
 <g>
  <title>background</title>
  <rect class="bckg" id="canvas_background" height="52" width="52" y="-1" x="-1"/>
 </g>
 <g>
  <title>Layer 1</title>
  <path stroke="null" id="svg_1" d="m33.699735,5.75l1.728173,0l0.288029,0a9.992385,8.94216 0 0 1 6.646819,3.271522a14.866719,13.304189 0 0 1 3.301254,8.446475a18.810499,16.833467 0 0 1 -3.965936,10.9249l-10.125321,11.717996l-4.630617,5.333572a1.550925,1.387918 0 0 1 -2.636572,0l-0.642526,-0.733614c-4.431213,-5.135298 -8.862426,-10.290423 -13.293639,-15.405894a22.444093,20.085161 0 0 1 -3.124005,-4.421511a18.212285,16.298127 0 0 1 -0.73115,-11.975753a11.078032,9.913703 0 0 1 7.355813,-6.780973a19.940458,17.844665 0 0 1 1.994046,-0.376721l1.728173,0l1.041335,0.178447a10.634911,9.517155 0 0 1 6.824068,4.28272l0.221561,0.297411l0.243717,-0.317238a10.790003,9.655946 0 0 1 6.092918,-4.183583c0.553902,-0.07931 1.085647,-0.158619 1.683861,-0.257756z" fill="#ff1d25" class="cls-1"/>
 </g>
</svg>
