<svg xmlns="http://www.w3.org/2000/svg" viewBox="0 0 83.95 21.17"><defs><style>.cls-1{fill:#ccc;}</style></defs><title>logo - icones</title><g id="Calque_2" data-name="Calque 2"><g id="Logo_central" data-name="Logo central"><path class="cls-1" d="M84,10.59a1.93,1.93,0,0,1-.13.21q-4,4.9-8,9.82a.47.47,0,0,1-.8-.05l-6.28-7.74c-.54-.66-1.07-1.33-1.62-2a.35.35,0,0,1,0-.5L75.07.59a.48.48,0,0,1,.82,0l7.91,9.76C83.86,10.43,83.9,10.51,84,10.59Z"/><path class="cls-1" d="M34.57,1.55h.75a.53.53,0,0,0,.12,0,4.39,4.39,0,0,1,2.89,1.47,5.61,5.61,0,0,1,1.41,3.77A7.13,7.13,0,0,1,38,11.7L33.67,17l-2,2.38a.7.7,0,0,1-1.14,0L30.27,19c-1.91-2.3-3.81-4.6-5.73-6.89a8.85,8.85,0,0,1-1.34-2,6.83,6.83,0,0,1-.31-5.37,4.6,4.6,0,0,1,3.17-3c.28-.08.57-.11.86-.17h.75l.45.08a4.58,4.58,0,0,1,2.9,2l.1.13.1-.15a4.67,4.67,0,0,1,2.63-1.87C34.09,1.63,34.33,1.6,34.57,1.55Z"/><path class="cls-1" d="M53.42,0c.71.67,1.42,1.31,2.11,2a37.83,37.83,0,0,1,5,5.79,13.52,13.52,0,0,1,1.94,3.87,6,6,0,0,1-.32,4.43,3.58,3.58,0,0,1-2.88,2.05,5.82,5.82,0,0,1-4-1c-.47-.3-.91-.67-1.39-1a55.93,55.93,0,0,0,2.9,5.11H50a46.51,46.51,0,0,0,2.86-5.12l-.18.15a7.55,7.55,0,0,1-3.54,1.86,4.14,4.14,0,0,1-3.31-.59,4.23,4.23,0,0,1-1.67-2.87A7.2,7.2,0,0,1,45,10a20.94,20.94,0,0,1,2.69-4.11A47.18,47.18,0,0,1,53.25.14Z"/><path class="cls-1" d="M13.29,19.62H4.86a2.86,2.86,0,0,0,.9-.24,3.09,3.09,0,0,0,1.29-1.16,6,6,0,0,0,.79-2,10.55,10.55,0,0,0,.25-1.85c0-.15,0-.3,0-.45l0,0a6.56,6.56,0,0,0-1.37,1A4,4,0,0,1,2,15.66a3.69,3.69,0,0,1-1.95-4,3.81,3.81,0,0,1,3.3-3A3.86,3.86,0,0,1,6.65,9.71a7.71,7.71,0,0,0,1.3,1l.07,0,0-.1A6.64,6.64,0,0,0,6.32,8a3.66,3.66,0,0,1,.06-5.45,4,4,0,0,1,4.18-.69,3.63,3.63,0,0,1,2.36,3.24A3.53,3.53,0,0,1,11.8,8,6.92,6.92,0,0,0,10.9,9a6.12,6.12,0,0,0-.83,1.63.24.24,0,0,0,0,.08,7.51,7.51,0,0,0,1.42-1A3.86,3.86,0,0,1,15,8.69a3.77,3.77,0,0,1,3.07,3.1,3.46,3.46,0,0,1-.5,2.49,3.81,3.81,0,0,1-3.67,1.82A3.67,3.67,0,0,1,11.52,15,7.32,7.32,0,0,0,10,13.94l-.07,0V14c0,.27,0,.55,0,.83a8.76,8.76,0,0,0,.38,2,4.93,4.93,0,0,0,.88,1.7,2.82,2.82,0,0,0,1.6,1Z"/></g></g></svg>