<svg xmlns="http://www.w3.org/2000/svg" viewBox="0 0 135.38 144.8"><defs><style>.cls-1{fill:#ccc;}</style></defs><title>logo - initiales</title><g id="Calque_2" data-name="Calque 2"><g id="Logo_central" data-name="Logo central"><path class="cls-1" d="M70,42.2H49.6V37.6a21.77,21.77,0,0,0-3.3-12.1Q43,20.4,35.2,20.4A13.35,13.35,0,0,0,28.3,22a11.8,11.8,0,0,0-4.2,4.1A17.15,17.15,0,0,0,22,31.9a38.52,38.52,0,0,0-.6,6.9,70.62,70.62,0,0,0,.3,7.1,12.6,12.6,0,0,0,1.5,5,11.55,11.55,0,0,0,3.5,3.7A32,32,0,0,0,33,57.8L48.6,64a38.72,38.72,0,0,1,11,6.1,24.73,24.73,0,0,1,6.5,8.2,34.65,34.65,0,0,1,3.1,10.8A108.5,108.5,0,0,1,70,103a73.27,73.27,0,0,1-1.8,16.7,35.3,35.3,0,0,1-5.9,13.2,28.29,28.29,0,0,1-10.9,8.7q-6.8,3.19-16.6,3.2A36.4,36.4,0,0,1,21,142.2,32.86,32.86,0,0,1,2.7,124.4,33.18,33.18,0,0,1,0,111v-7.6H20.4v6.4a16.67,16.67,0,0,0,3.3,10.1q3.3,4.5,11.1,4.5a17.88,17.88,0,0,0,8.1-1.5,10.33,10.33,0,0,0,4.4-4.2,17.3,17.3,0,0,0,1.9-6.7,87.93,87.93,0,0,0,.4-8.8,85.38,85.38,0,0,0-.4-9.2,14.58,14.58,0,0,0-1.7-5.8,10.34,10.34,0,0,0-3.6-3.6,48.31,48.31,0,0,0-6.1-3l-14.6-6Q10,70.2,5.5,61.3T1,39A51.64,51.64,0,0,1,3.2,23.8,35.5,35.5,0,0,1,9.7,11.4,31,31,0,0,1,20.6,3.1,35.82,35.82,0,0,1,36,0,33.78,33.78,0,0,1,49.9,2.8a34.55,34.55,0,0,1,10.8,7.4,32.94,32.94,0,0,1,6.9,10.3A29.88,29.88,0,0,1,70,32.2Z"/><path class="cls-1" d="M135.38,111.8a32.56,32.56,0,0,1-2.5,12.6,33.14,33.14,0,0,1-6.9,10.5,34.24,34.24,0,0,1-10.3,7.2,30.15,30.15,0,0,1-12.7,2.7,45.51,45.51,0,0,1-11.8-1.6,28.68,28.68,0,0,1-10.8-5.5,29.56,29.56,0,0,1-7.9-10.3q-3.11-6.41-3.1-16.2V32.8a34.67,34.67,0,0,1,2.4-13,30.47,30.47,0,0,1,6.8-10.4,31.65,31.65,0,0,1,10.5-6.9A35.17,35.17,0,0,1,102.58,0a33.39,33.39,0,0,1,13,2.5,31.22,31.22,0,0,1,10.4,7,32.37,32.37,0,0,1,6.9,10.8,37,37,0,0,1,2.5,13.7v8H115V35.2a16.55,16.55,0,0,0-3.4-10.4,11,11,0,0,0-9.2-4.4q-7.6,0-10.1,4.7A25.14,25.14,0,0,0,89.78,37v72.8a18.86,18.86,0,0,0,2.7,10.4q2.7,4.2,9.7,4.2a14.7,14.7,0,0,0,4.3-.7,11.86,11.86,0,0,0,4.2-2.3,11.56,11.56,0,0,0,3.1-4.4,17.84,17.84,0,0,0,1.2-7v-7h20.4Z"/></g></g></svg>