<svg xmlns="http://www.w3.org/2000/svg"  viewBox="0 0 310.39 100.29"><defs><style>.cls-1{fill:#333;}.cls-2{fill:#ff1d25;}</style></defs><title>logo</title><g id="Calque_2" data-name="Calque 2"><g id="Calque_1-2" data-name="Calque 1"><path class="cls-1" d="M25.2,15.19H17.86V13.54a7.86,7.86,0,0,0-1.19-4.36,4.41,4.41,0,0,0-4-1.84,4.84,4.84,0,0,0-2.48.58A4.2,4.2,0,0,0,8.68,9.4a6.06,6.06,0,0,0-.76,2.08A14.33,14.33,0,0,0,7.7,14c0,1,0,1.86.11,2.55a4.43,4.43,0,0,0,.54,1.8,4.2,4.2,0,0,0,1.26,1.34,12.13,12.13,0,0,0,2.27,1.15L17.5,23a13.89,13.89,0,0,1,4,2.2,9.1,9.1,0,0,1,2.34,3,12.47,12.47,0,0,1,1.11,3.89,39.08,39.08,0,0,1,.29,5,26.49,26.49,0,0,1-.65,6,12.67,12.67,0,0,1-2.12,4.75A10.25,10.25,0,0,1,18.5,51a14.06,14.06,0,0,1-6,1.15,13.16,13.16,0,0,1-5-.94,12,12,0,0,1-4-2.55A12.18,12.18,0,0,1,1,44.78,11.86,11.86,0,0,1,0,40V37.22H7.34v2.31a6,6,0,0,0,1.19,3.63,4.64,4.64,0,0,0,4,1.62,6.39,6.39,0,0,0,2.91-.54A3.69,3.69,0,0,0,17,42.73a6.11,6.11,0,0,0,.68-2.41,30.8,30.8,0,0,0,.15-3.17,29.76,29.76,0,0,0-.15-3.31,5.22,5.22,0,0,0-.61-2.09,3.65,3.65,0,0,0-1.3-1.29,16,16,0,0,0-2.19-1.08L8.35,27.22Q3.6,25.27,2,22.07A17.72,17.72,0,0,1,.36,14a18.55,18.55,0,0,1,.79-5.47A12.86,12.86,0,0,1,3.49,4.1a11.14,11.14,0,0,1,3.93-3A12.8,12.8,0,0,1,13,0a12.21,12.21,0,0,1,5,1,12.38,12.38,0,0,1,3.89,2.66,12,12,0,0,1,2.49,3.71,10.86,10.86,0,0,1,.86,4.21Z"/><path class="cls-1" d="M30.67.43h7.06l9.43,27.15h.14L56.66.43h7.13V51.7H56.45V20.52H56.3L49,42.55H45.36l-7.2-22H38V51.7H30.67Z"/><path class="cls-1" d="M78.84.43H85L96.41,51.7H89.06l-2.16-11h-10l-2.16,11H67.39Zm3.1,14.76h-.15l-3.6,18.58h7.35Z"/><path class="cls-1" d="M100,.43h11.81q13,0,13,15.05a19,19,0,0,1-1.41,7.67,10.87,10.87,0,0,1-4.93,5.15l7.92,23.4h-7.78l-6.84-21.89h-4.39V51.7H100Zm7.34,22.9h4.18a7.38,7.38,0,0,0,3.09-.54,4,4,0,0,0,1.77-1.55,6.83,6.83,0,0,0,.83-2.48,24.68,24.68,0,0,0,.21-3.42,24.48,24.48,0,0,0-.21-3.42,6.28,6.28,0,0,0-.9-2.52,4.07,4.07,0,0,0-1.91-1.55,8.59,8.59,0,0,0-3.24-.51h-3.82Z"/><path class="cls-1" d="M134.21,7.34h-8.5V.43h24.34V7.34h-8.5V51.7h-7.34Z"/><path class="cls-1" d="M190,40.25a11.66,11.66,0,0,1-.9,4.53,12,12,0,0,1-2.49,3.78,12.22,12.22,0,0,1-3.71,2.6,11,11,0,0,1-4.57,1,16.22,16.22,0,0,1-4.25-.58,10.15,10.15,0,0,1-3.88-2,10.59,10.59,0,0,1-2.85-3.71A13.41,13.41,0,0,1,166.25,40V11.81a12.41,12.41,0,0,1,.86-4.68,11.08,11.08,0,0,1,2.45-3.75A11.34,11.34,0,0,1,173.34.9,12.67,12.67,0,0,1,178.2,0a12,12,0,0,1,4.68.9,11.12,11.12,0,0,1,3.74,2.52,11.75,11.75,0,0,1,2.49,3.89,13.22,13.22,0,0,1,.9,4.93v2.88h-7.35V12.67a6,6,0,0,0-1.22-3.74,4,4,0,0,0-3.31-1.59c-1.83,0-3,.57-3.64,1.7a9,9,0,0,0-.9,4.28V39.53a6.76,6.76,0,0,0,1,3.74,3.82,3.82,0,0,0,3.49,1.51,5.26,5.26,0,0,0,1.55-.25,4.09,4.09,0,0,0,2.63-2.41,6.37,6.37,0,0,0,.43-2.52V37.08H190Z"/><path class="cls-1" d="M204.12.43h6.12L221.69,51.7h-7.35l-2.16-11h-10L200,51.7h-7.34Zm3.09,14.76h-.14l-3.6,18.58h7.34Z"/><path class="cls-1" d="M225.29.43h11.8q13,0,13,15.05a19,19,0,0,1-1.4,7.67,10.92,10.92,0,0,1-4.93,5.15l7.92,23.4h-7.78L237,29.81h-4.39V51.7h-7.34Zm7.34,22.9h4.18a7.38,7.38,0,0,0,3.09-.54,4,4,0,0,0,1.77-1.55,6.65,6.65,0,0,0,.82-2.48,23.11,23.11,0,0,0,.22-3.42,22.92,22.92,0,0,0-.22-3.42,6,6,0,0,0-.9-2.52,4,4,0,0,0-1.9-1.55,8.59,8.59,0,0,0-3.24-.51h-3.82Z"/><path class="cls-1" d="M256,.43h10.87q6.27,0,9.57,3.49t3.32,9.76v24q0,7.2-3.49,10.62T266.18,51.7H256Zm7.34,44.35h3.39c2.06,0,3.52-.51,4.39-1.54a7.55,7.55,0,0,0,1.29-4.86V13.68A7.71,7.71,0,0,0,271.15,9c-.82-1.1-2.3-1.66-4.46-1.66H263.3Z"/><path class="cls-1" d="M310.39,15.19h-7.34V13.54a7.86,7.86,0,0,0-1.19-4.36,4.42,4.42,0,0,0-4-1.84,4.82,4.82,0,0,0-2.48.58,4.32,4.32,0,0,0-1.52,1.48,6.26,6.26,0,0,0-.75,2.08,14.33,14.33,0,0,0-.22,2.49c0,1,0,1.86.11,2.55a4.43,4.43,0,0,0,.54,1.8,4.2,4.2,0,0,0,1.26,1.34,12.13,12.13,0,0,0,2.27,1.15L302.69,23a13.89,13.89,0,0,1,4,2.2,8.94,8.94,0,0,1,2.33,3,12.21,12.21,0,0,1,1.12,3.89,39.08,39.08,0,0,1,.29,5,26.49,26.49,0,0,1-.65,6,12.67,12.67,0,0,1-2.12,4.75A10.32,10.32,0,0,1,303.69,51a14.06,14.06,0,0,1-6,1.15,13.13,13.13,0,0,1-5-.94A12,12,0,0,1,285.19,40V37.22h7.34v2.31a6,6,0,0,0,1.19,3.63,4.64,4.64,0,0,0,4,1.62,6.42,6.42,0,0,0,2.91-.54,3.69,3.69,0,0,0,1.59-1.51,6.28,6.28,0,0,0,.68-2.41,30.8,30.8,0,0,0,.15-3.17,29.76,29.76,0,0,0-.15-3.31,5.39,5.39,0,0,0-.61-2.09,3.65,3.65,0,0,0-1.3-1.29,16,16,0,0,0-2.19-1.08l-5.26-2.16q-4.76-1.95-6.37-5.15a17.72,17.72,0,0,1-1.62-8,18.55,18.55,0,0,1,.79-5.47,12.86,12.86,0,0,1,2.34-4.47,11.19,11.19,0,0,1,3.92-3A12.88,12.88,0,0,1,298.15,0a12.21,12.21,0,0,1,5,1A12.38,12.38,0,0,1,307,3.67a11.78,11.78,0,0,1,2.48,3.71,10.69,10.69,0,0,1,.87,4.21Z"/></g></g></svg>
