<svg xmlns="http://www.w3.org/2000/svg" viewBox="0 0 300.05 23.88"><defs><style>.cls-1{fill:#ff1d25;}.cls-2{fill:#333;}</style></defs><title>Logo - icônes</title><g id="Calque_2" data-name="Calque 2"><g id="Calque_1-2" data-name="Calque 1"><path class="cls-1" d="M194,11.94a2.6,2.6,0,0,1-.13.24l-8.35,11.07c-.24.32-.57.3-.84-.05l-6.58-8.73c-.56-.75-1.12-1.5-1.69-2.24a.4.4,0,0,1,0-.57l8.28-11a.48.48,0,0,1,.86,0l8.3,11A2.2,2.2,0,0,1,194,11.94Z"/><path class="cls-1" d="M142.27,1.75h.78l.13,0a4.51,4.51,0,0,1,3,1.65,6.71,6.71,0,0,1,1.49,4.26,8.49,8.49,0,0,1-1.79,5.51l-4.57,5.91-2.09,2.69a.7.7,0,0,1-1.19,0l-.29-.37c-2-2.59-4-5.19-6-7.77a10.13,10.13,0,0,1-1.41-2.23A8.22,8.22,0,0,1,130,5.36a5,5,0,0,1,3.32-3.42,9,9,0,0,1,.9-.19H135l.47.09A4.8,4.8,0,0,1,138.55,4l.1.15.11-.16a4.87,4.87,0,0,1,2.75-2.11C141.76,1.84,142,1.8,142.27,1.75Z"/><path class="cls-2" d="M162,0c.75.75,1.49,1.48,2.22,2.24a42.1,42.1,0,0,1,5.21,6.52,16,16,0,0,1,2,4.36,7.26,7.26,0,0,1-.34,5,3.77,3.77,0,0,1-3,2.31A5.81,5.81,0,0,1,164,19.26c-.49-.34-.95-.75-1.46-1.15.91,2,1.95,3.89,3,5.77h-7.07a52.6,52.6,0,0,0,3-5.78l-.18.18a7.86,7.86,0,0,1-3.71,2.09,4.08,4.08,0,0,1-3.47-.66,5,5,0,0,1-1.76-3.24,8.74,8.74,0,0,1,.82-5.15A25,25,0,0,1,156,6.68,50.78,50.78,0,0,1,161.84.16Z"/><path class="cls-2" d="M120,22.13h-8.92l.07,0a2.86,2.86,0,0,0,.95-.26,3.32,3.32,0,0,0,1.36-1.32,6.92,6.92,0,0,0,.83-2.22,14.42,14.42,0,0,0,.26-2.08v-.51l0,0A7.27,7.27,0,0,0,113,16.9a3.94,3.94,0,0,1-4.88.76,4.28,4.28,0,0,1-2-4.56,4.13,4.13,0,0,1,3.45-3.35A3.88,3.88,0,0,1,113,11a8,8,0,0,0,1.36,1.1l.07,0a.81.81,0,0,0,0-.11,7.75,7.75,0,0,0-1.75-3,4.25,4.25,0,0,1-1.19-3.68,4.12,4.12,0,0,1,1.25-2.46,4,4,0,0,1,4.38-.79,4.11,4.11,0,0,1,2.48,3.66A4.17,4.17,0,0,1,118.4,9a6.81,6.81,0,0,0-.94,1.2,6.84,6.84,0,0,0-.87,1.83l0,.1A8.09,8.09,0,0,0,118.05,11a3.88,3.88,0,0,1,3.74-1.18,4.28,4.28,0,0,1,2.69,6.31,3.93,3.93,0,0,1-3.85,2.05,3.78,3.78,0,0,1-2.52-1.2,7.74,7.74,0,0,0-1.56-1.24l-.08,0v.09c0,.32,0,.63,0,.94a11,11,0,0,0,.4,2.29,5.9,5.9,0,0,0,.93,1.92,2.88,2.88,0,0,0,1.68,1.13C119.67,22.09,119.82,22.1,120,22.13Z"/><path class="cls-2" d="M94.88,14.15,0,12.53H0l94.88-1.64Z"/><path class="cls-2" d="M205.18,14.15l94.87-1.62h0l-94.87-1.64Z"/></g></g></svg>
