<svg xmlns="http://www.w3.org/2000/svg" viewBox="0 0 161.25 49.3"><defs><style>.cls-1{fill:#8cc63f;}.cls-2{fill:#333;}</style></defs><title>polices-online</title><g id="Calque_2" data-name="Calque 2"><g id="Calque_1-2" data-name="Calque 1"><path class="cls-1" d="M3,12.08A11.71,11.71,0,0,1,4.08,6.93,10.91,10.91,0,0,1,6.92,3.25a12.42,12.42,0,0,1,4-2.2,13.46,13.46,0,0,1,8.86,0,12.42,12.42,0,0,1,4,2.2,10.78,10.78,0,0,1,2.84,3.68,11.71,11.71,0,0,1,1.08,5.15V37.53a11.59,11.59,0,0,1-1.08,5.17,10.8,10.8,0,0,1-2.84,3.66,12.61,12.61,0,0,1-4,2.2,13.63,13.63,0,0,1-8.86,0,12.61,12.61,0,0,1-4-2.2A10.93,10.93,0,0,1,4.08,42.7,11.59,11.59,0,0,1,3,37.53Zm7.34,25.45a4.43,4.43,0,0,0,1.48,3.68,5.41,5.41,0,0,0,3.49,1.19,5.41,5.41,0,0,0,3.49-1.19,4.4,4.4,0,0,0,1.48-3.68V12.08A4.43,4.43,0,0,0,18.8,8.39a5.4,5.4,0,0,0-3.49-1.18,5.4,5.4,0,0,0-3.49,1.18,4.46,4.46,0,0,0-1.48,3.69Z"/><path class="cls-1" d="M33.82.71h7L52,29.74h.14V.71h7.35V48.9H52.54l-11.24-29h-.14v29H33.82Z"/><path class="cls-1" d="M66.07.71h7.34V42H88V48.9H66.07Z"/><path class="cls-1" d="M92.93.71h7.34V48.9H92.93Z"/><path class="cls-1" d="M107.11.71h7.06l11.08,29h.15V.71h7.34V48.9h-6.91l-11.23-29h-.15v29h-7.34Z"/><path class="cls-1" d="M139.36.71h21.89v6.5H146.71V21.35h12.67v6.5H146.71V42h14.54V48.9H139.36Z"/><path class="cls-2" d="M0,11.78A11.71,11.71,0,0,1,1.08,6.63,11,11,0,0,1,3.92,2.94a12.61,12.61,0,0,1,4-2.2,13.63,13.63,0,0,1,8.86,0,12.61,12.61,0,0,1,4,2.2,10.82,10.82,0,0,1,2.84,3.69,11.71,11.71,0,0,1,1.08,5.15V37.22a11.6,11.6,0,0,1-1.08,5.18,10.8,10.8,0,0,1-2.84,3.66,12.61,12.61,0,0,1-4,2.2,13.63,13.63,0,0,1-8.86,0,12.61,12.61,0,0,1-4-2.2A10.93,10.93,0,0,1,1.08,42.4,11.6,11.6,0,0,1,0,37.22ZM7.34,37.22a4.46,4.46,0,0,0,1.48,3.69,5.41,5.41,0,0,0,3.49,1.19,5.41,5.41,0,0,0,3.49-1.19,4.43,4.43,0,0,0,1.48-3.69V11.78A4.43,4.43,0,0,0,15.8,8.09,5.41,5.41,0,0,0,12.31,6.9,5.41,5.41,0,0,0,8.82,8.09a4.46,4.46,0,0,0-1.48,3.69Z"/><path class="cls-2" d="M30.82.41h7L49,29.44h.14V.41h7.35V48.59H49.54l-11.24-29h-.14v29H30.82Z"/><path class="cls-2" d="M63.07.41h7.34V41.69H85v6.9H63.07Z"/><path class="cls-2" d="M89.93.41h7.34V48.59H89.93Z"/><path class="cls-2" d="M104.11.41h7.06l11.08,29h.15V.41h7.34V48.59h-6.91l-11.23-29h-.15v29h-7.34Z"/><path class="cls-2" d="M136.36.41h21.89V6.9H143.71V21.05h12.67v6.5H143.71V41.69h14.54v6.9H136.36Z"/></g></g></svg>