<svg xmlns="http://www.w3.org/2000/svg" viewBox="0 0 42.52 49.1"><defs><style>.cls-1{fill:#ccc;}.cls-2{fill:#333;}</style></defs><title>paramètres</title><g id="Calque_2" data-name="Calque 2"><g id="Calque_1-2" data-name="Calque 1"><polygon class="cls-1" points="0 12.27 21.26 0 42.52 12.27 42.52 36.82 21.26 49.1 0 36.82 0 12.27"/>
<path class="cls-2" d="M19.69,10.38h3.14l1.26,5a.22.22,0,0,0,.17.19c.4.17.81.33,1.2.51a.27.27,0,0,0,.26,0L30,13.49a.16.16,0,0,1,.24,0c.66.67,1.32,1.34,2,2a.19.19,0,0,1,0,.29l-2.58,4.28a.23.23,0,0,0,0,.26c.18.4.33.81.51,1.2a.3.3,0,0,0,.15.16c.43.12.86.22,1.29.33l3.77.94v3.15l-5,1.25a.29.29,0,0,0-.24.21c-.15.38-.31.77-.48,1.14a.31.31,0,0,0,0,.32c.86,1.43,1.72,2.87,2.59,4.3a.15.15,0,0,1,0,.21l-2,2a.18.18,0,0,1-.26,0L25.72,33a.26.26,0,0,0-.27,0c-.39.17-.77.34-1.16.49a.29.29,0,0,0-.21.22q-.61,2.51-1.25,5H19.69l-1.26-5a.25.25,0,0,0-.17-.2c-.4-.16-.8-.32-1.19-.5a.3.3,0,0,0-.29,0L12.5,35.6a.18.18,0,0,1-.27,0c-.66-.68-1.33-1.34-2-2a.16.16,0,0,1,0-.24c.87-1.43,1.73-2.87,2.6-4.31a.24.24,0,0,0,0-.23c-.18-.41-.36-.82-.52-1.23a.25.25,0,0,0-.19-.17l-5-1.26V23l.12,0,4.9-1.22a.26.26,0,0,0,.2-.19c.15-.38.31-.77.48-1.14a.3.3,0,0,0,0-.34L10.2,15.77a.16.16,0,0,1,0-.24l2-2a.17.17,0,0,1,.25,0l4.32,2.6a.21.21,0,0,0,.23,0c.39-.18.78-.34,1.17-.5a.33.33,0,0,0,.23-.24Q19.06,12.86,19.69,10.38Zm7.86,14.16a6.28,6.28,0,1,0-6.06,6.28A6.31,6.31,0,0,0,27.55,24.54Z"/></g></g></svg>
