<svg xmlns="http://www.w3.org/2000/svg" viewBox="0 0 73.34 21.78"><title>polices-regles</title><defs><style>.cls-1{fill:#333;}</style></defs><g id="Calque_2" data-name="Calque 2"><g id="Calque_1-2" data-name="Calque 1">
<path class="cls-1" d="M0,.18H5.25Q11,.18,11,6.47a7.46,7.46,0,0,1-.63,3.2,4.62,4.62,0,0,1-2.19,2.15l3.52,9.78H8.26l-3-9.15h-2V21.6H0ZM3.26,9.75H5.12A3.51,3.51,0,0,0,6.5,9.52a1.67,1.67,0,0,0,.78-.65,2.73,2.73,0,0,0,.37-1,10.13,10.13,0,0,0,.09-1.43A10,10,0,0,0,7.65,5a2.59,2.59,0,0,0-.4-1.05,1.85,1.85,0,0,0-.85-.65A4.06,4.06,0,0,0,5,3.07H3.26Z"/>
<path class="cls-1" d="M13.63.18h9.73V3.07H16.9V9.35h5.63v2.89H16.9v6.29h6.46V21.6H13.63Z"/>
<path class="cls-1" d="M25.28,5.23A5.16,5.16,0,0,1,25.76,3,4.83,4.83,0,0,1,27,1.31a5.64,5.64,0,0,1,1.76-1,6,6,0,0,1,3.94,0,5.53,5.53,0,0,1,1.76,1A4.83,4.83,0,0,1,35.74,3a5.16,5.16,0,0,1,.48,2.28V6.32H33V5.23a2,2,0,0,0-.66-1.64,2.57,2.57,0,0,0-3.1,0,2,2,0,0,0-.66,1.64V16.54a2,2,0,0,0,.66,1.64,2.53,2.53,0,0,0,3.1,0A2,2,0,0,0,33,16.54v-4H30.37V9.81h5.85v6.73a5.13,5.13,0,0,1-.48,2.3,4.79,4.79,0,0,1-1.26,1.63,5.53,5.53,0,0,1-1.76,1,6,6,0,0,1-3.94,0,5.64,5.64,0,0,1-1.76-1,4.79,4.79,0,0,1-1.26-1.63,5.13,5.13,0,0,1-.48-2.3Z"/>
<path class="cls-1" d="M39.1.18h3.27V18.53h6.46V21.6H39.1Z"/>
<path class="cls-1" d="M50.94.18h9.73V3.07H54.21V9.35h5.63v2.89H54.21v6.29h6.46V21.6H50.94Z"/>
<path class="cls-1" d="M73.34,6.35H70.08V5.66a3.18,3.18,0,0,0-.53-1.83,2,2,0,0,0-1.77-.76,2.28,2.28,0,0,0-1.11.24,1.75,1.75,0,0,0-.67.62,2.59,2.59,0,0,0-.34.87,5.75,5.75,0,0,0-.09,1,8.09,8.09,0,0,0,.05,1.06,1.84,1.84,0,0,0,.24.76,1.64,1.64,0,0,0,.56.55,5.22,5.22,0,0,0,1,.48l2.5.94a6.42,6.42,0,0,1,1.76.91,3.83,3.83,0,0,1,1,1.24,5,5,0,0,1,.49,1.62,14.53,14.53,0,0,1,.13,2.09A10.49,10.49,0,0,1,73.06,18a5.19,5.19,0,0,1-1,2,4.55,4.55,0,0,1-1.74,1.31,6.59,6.59,0,0,1-2.66.48,6.19,6.19,0,0,1-2.21-.39,5.46,5.46,0,0,1-1.76-1.07,4.92,4.92,0,0,1-1.16-1.61,4.7,4.7,0,0,1-.44-2V15.55h3.27v1A2.35,2.35,0,0,0,65.94,18a2.11,2.11,0,0,0,1.77.68,3,3,0,0,0,1.3-.23,1.59,1.59,0,0,0,.7-.63,2.56,2.56,0,0,0,.31-1q.06-.6.06-1.32A12.93,12.93,0,0,0,70,14.14a2.17,2.17,0,0,0-.28-.87,1.58,1.58,0,0,0-.57-.55,7.9,7.9,0,0,0-1-.45l-2.33-.9A5.13,5.13,0,0,1,63,9.22a7,7,0,0,1-.72-3.35,7.18,7.18,0,0,1,.36-2.29,5.26,5.26,0,0,1,1-1.87A4.87,4.87,0,0,1,65.44.47,6,6,0,0,1,67.9,0a5.75,5.75,0,0,1,2.23.42,5.59,5.59,0,0,1,1.73,1.11A5.3,5.3,0,0,1,73,3.08a4.39,4.39,0,0,1,.38,1.76Z"/></g></g></svg>
