<svg xmlns="http://www.w3.org/2000/svg" viewBox="0 0 42.52 49.1"><defs><style>.cls-1{fill:#ccc;}.cls-2{fill:#333;}</style></defs><title>rejouer </title><g id="Calque_2" data-name="Calque 2"><g id="Calque_1-2" data-name="Calque 1"><polygon class="cls-1" points="0 12.27 21.26 0 42.52 12.27 42.52 36.82 21.26 49.1 0 36.82 0 12.27"/><path class="cls-2" d="M9.1,19.31a15.43,15.43,0,0,0-.76,4.36,14.14,14.14,0,0,0,.56,4.41,12.91,12.91,0,0,0,5.27,7.08,13.34,13.34,0,0,0,8.52,2.27,12.38,12.38,0,0,0,8-3.91,13.13,13.13,0,0,0,3.49-8.11A12.56,12.56,0,0,0,31.49,17a13.6,13.6,0,0,0-7.35-4.82c-.34-.07-.67-.16-1-.22l.46-2.38a15.51,15.51,0,0,0-4.75,3.71,12.32,12.32,0,0,1,3.22,4.16L22.53,15c.27.05.53.12.8.18A10.39,10.39,0,0,1,29,18.89a9.34,9.34,0,0,1,2,6.32,10,10,0,0,1-2.65,6.15,9.14,9.14,0,0,1-5.92,2.91,10.19,10.19,0,0,1-6.48-1.74,9.79,9.79,0,0,1-4-5.35,12,12,0,0,1,.15-6.83Z"/></g></g></svg>
