<svg xmlns="http://www.w3.org/2000/svg" viewBox="0 0 115.17 55.13"><defs><style>.cls-1{fill:#ff0;}.cls-2{fill:#333;}</style></defs><title>polices-solo</title><g id="Calque_2" data-name="Calque 2"><g id="Calque_1-2" data-name="Calque 1"><path class="cls-1" d="M28.2,18.19H20.86V16.54a7.86,7.86,0,0,0-1.19-4.36,4.41,4.41,0,0,0-4-1.84,4.84,4.84,0,0,0-2.48.58,4.2,4.2,0,0,0-1.51,1.48,6.06,6.06,0,0,0-.76,2.08A14.33,14.33,0,0,0,10.7,17c0,1,0,1.86.11,2.55a4.43,4.43,0,0,0,.54,1.8,4.2,4.2,0,0,0,1.26,1.34,12.13,12.13,0,0,0,2.27,1.15L20.5,26a13.89,13.89,0,0,1,4,2.2,9.1,9.1,0,0,1,2.34,3,12.47,12.47,0,0,1,1.11,3.89,39.08,39.08,0,0,1,.29,5,26.49,26.49,0,0,1-.65,6,12.67,12.67,0,0,1-2.12,4.75A10.25,10.25,0,0,1,21.5,54a14.06,14.06,0,0,1-6,1.15,13.16,13.16,0,0,1-5-.94,12,12,0,0,1-4-2.55A12.18,12.18,0,0,1,4,47.78,11.86,11.86,0,0,1,3,43V40.22h7.34v2.31a6,6,0,0,0,1.19,3.63,4.64,4.64,0,0,0,4,1.62,6.39,6.39,0,0,0,2.91-.54A3.69,3.69,0,0,0,20,45.73a6.11,6.11,0,0,0,.68-2.41,30.8,30.8,0,0,0,.15-3.17,29.76,29.76,0,0,0-.15-3.31,5.22,5.22,0,0,0-.61-2.09,3.65,3.65,0,0,0-1.3-1.29,16,16,0,0,0-2.19-1.08l-5.26-2.16Q6.6,28.27,5,25.07a17.72,17.72,0,0,1-1.62-8,18.55,18.55,0,0,1,.79-5.47A12.86,12.86,0,0,1,6.49,7.1a11.14,11.14,0,0,1,3.93-3A12.8,12.8,0,0,1,16,3a12.21,12.21,0,0,1,5,1,12.38,12.38,0,0,1,3.89,2.66,12,12,0,0,1,2.49,3.71,10.86,10.86,0,0,1,.86,4.21Z"/><path class="cls-1" d="M33.24,15.53a13.06,13.06,0,0,1,1.08-5.47,11.43,11.43,0,0,1,2.84-3.93,12.42,12.42,0,0,1,4-2.34,12.82,12.82,0,0,1,8.86,0,12.42,12.42,0,0,1,4,2.34,11.43,11.43,0,0,1,2.84,3.93,13.06,13.06,0,0,1,1.08,5.47V42.6a13.05,13.05,0,0,1-1.08,5.51A11.66,11.66,0,0,1,53.94,52a12.42,12.42,0,0,1-4,2.34,12.82,12.82,0,0,1-8.86,0,12.42,12.42,0,0,1-4-2.34,11.66,11.66,0,0,1-2.84-3.89,13.05,13.05,0,0,1-1.08-5.51ZM40.58,42.6a4.88,4.88,0,0,0,1.48,3.92,5.46,5.46,0,0,0,7,0,4.85,4.85,0,0,0,1.48-3.92V15.53A4.87,4.87,0,0,0,49,11.6a5.46,5.46,0,0,0-7,0,4.9,4.9,0,0,0-1.48,3.93Z"/><path class="cls-1" d="M64.34,3.43h7.35V47.35H86.23V54.7H64.34Z"/><path class="cls-1" d="M90.55,15.53a13.06,13.06,0,0,1,1.08-5.47,11.33,11.33,0,0,1,2.85-3.93,12.2,12.2,0,0,1,4-2.34,12.79,12.79,0,0,1,8.85,0,12.42,12.42,0,0,1,4,2.34,11.18,11.18,0,0,1,2.84,3.93,13.06,13.06,0,0,1,1.08,5.47V42.6a13.05,13.05,0,0,1-1.08,5.51A11.39,11.39,0,0,1,111.25,52a12.42,12.42,0,0,1-4,2.34,12.79,12.79,0,0,1-8.85,0,12.2,12.2,0,0,1-4-2.34,11.55,11.55,0,0,1-2.85-3.89,13.05,13.05,0,0,1-1.08-5.51ZM97.9,42.6a4.88,4.88,0,0,0,1.47,3.92,5.46,5.46,0,0,0,7,0,4.85,4.85,0,0,0,1.48-3.92V15.53a4.87,4.87,0,0,0-1.48-3.93,5.46,5.46,0,0,0-7,0,4.9,4.9,0,0,0-1.47,3.93Z"/><path class="cls-2" d="M25.2,15.19H17.86V13.54a7.86,7.86,0,0,0-1.19-4.36,4.41,4.41,0,0,0-4-1.84,4.84,4.84,0,0,0-2.48.58A4.2,4.2,0,0,0,8.68,9.4a6.06,6.06,0,0,0-.76,2.08A14.33,14.33,0,0,0,7.7,14c0,1,0,1.86.11,2.55a4.43,4.43,0,0,0,.54,1.8,4.2,4.2,0,0,0,1.26,1.34,12.13,12.13,0,0,0,2.27,1.15L17.5,23a13.89,13.89,0,0,1,4,2.2,9.1,9.1,0,0,1,2.34,3,12.47,12.47,0,0,1,1.11,3.89,39.08,39.08,0,0,1,.29,5,26.49,26.49,0,0,1-.65,6,12.67,12.67,0,0,1-2.12,4.75A10.25,10.25,0,0,1,18.5,51a14.06,14.06,0,0,1-6,1.15,13.16,13.16,0,0,1-5-.94,12,12,0,0,1-4-2.55A12.18,12.18,0,0,1,1,44.78,11.86,11.86,0,0,1,0,40V37.22H7.34v2.31a6,6,0,0,0,1.19,3.63,4.64,4.64,0,0,0,4,1.62,6.39,6.39,0,0,0,2.91-.54A3.69,3.69,0,0,0,17,42.73a6.11,6.11,0,0,0,.68-2.41,30.8,30.8,0,0,0,.15-3.17,29.76,29.76,0,0,0-.15-3.31,5.22,5.22,0,0,0-.61-2.09,3.65,3.65,0,0,0-1.3-1.29,16,16,0,0,0-2.19-1.08L8.35,27.22Q3.6,25.27,2,22.07A17.72,17.72,0,0,1,.36,14a18.55,18.55,0,0,1,.79-5.47A12.86,12.86,0,0,1,3.49,4.1a11.14,11.14,0,0,1,3.93-3A12.8,12.8,0,0,1,13,0a12.21,12.21,0,0,1,5,1,12.38,12.38,0,0,1,3.89,2.66,12,12,0,0,1,2.49,3.71,10.86,10.86,0,0,1,.86,4.21Z"/><path class="cls-2" d="M30.24,12.53a13.06,13.06,0,0,1,1.08-5.47,11.43,11.43,0,0,1,2.84-3.93,12.42,12.42,0,0,1,4-2.34A12.82,12.82,0,0,1,47,.79a12.42,12.42,0,0,1,4,2.34,11.43,11.43,0,0,1,2.84,3.93,13.06,13.06,0,0,1,1.08,5.47V39.6a13.05,13.05,0,0,1-1.08,5.51A11.66,11.66,0,0,1,50.94,49a12.42,12.42,0,0,1-4,2.34,12.82,12.82,0,0,1-8.86,0,12.42,12.42,0,0,1-4-2.34,11.66,11.66,0,0,1-2.84-3.89,13.05,13.05,0,0,1-1.08-5.51ZM37.58,39.6a4.88,4.88,0,0,0,1.48,3.92,5.46,5.46,0,0,0,7,0,4.85,4.85,0,0,0,1.48-3.92V12.53A4.87,4.87,0,0,0,46,8.6a5.46,5.46,0,0,0-7,0,4.9,4.9,0,0,0-1.48,3.93Z"/><path class="cls-2" d="M61.34.43h7.35V44.35H83.23V51.7H61.34Z"/><path class="cls-2" d="M87.55,12.53a13.06,13.06,0,0,1,1.08-5.47,11.33,11.33,0,0,1,2.85-3.93,12.2,12.2,0,0,1,4-2.34,12.79,12.79,0,0,1,8.85,0,12.42,12.42,0,0,1,4,2.34,11.18,11.18,0,0,1,2.84,3.93,13.06,13.06,0,0,1,1.08,5.47V39.6a13.05,13.05,0,0,1-1.08,5.51A11.39,11.39,0,0,1,108.25,49a12.42,12.42,0,0,1-4,2.34,12.79,12.79,0,0,1-8.85,0,12.2,12.2,0,0,1-4-2.34,11.55,11.55,0,0,1-2.85-3.89,13.05,13.05,0,0,1-1.08-5.51ZM94.9,39.6a4.88,4.88,0,0,0,1.47,3.92,5.46,5.46,0,0,0,7,0,4.85,4.85,0,0,0,1.48-3.92V12.53a4.87,4.87,0,0,0-1.48-3.93,5.46,5.46,0,0,0-7,0,4.9,4.9,0,0,0-1.47,3.93Z"/></g></g></svg>