<svg width="50" height="50" xmlns="http://www.w3.org/2000/svg">
 <style>.bckg{fill:#ededed;}.cls-2{fill:#333;}</style>

 <title>heart</title>
 <g>
  <title>background</title>
  <rect class="bckg" id="canvas_background" height="52" width="52" y="-1" x="-1"/>
 </g>
 <g>
  <title>Layer 1</title>
  <g id="Calque_2" stroke="null">
   <g id="Calque_1-2" stroke="null">
    <path id="svg_1" d="m25.249459,4c1.328002,1.315327 2.638297,2.595578 3.930884,3.928442a74.545147,73.83367 0 0 1 9.225184,11.434573a28.330697,28.060302 0 0 1 3.541337,7.646433a12.855054,12.732362 0 0 1 -0.602028,8.768845a6.67542,6.611709 0 0 1 -5.312005,4.051206a10.287584,10.189397 0 0 1 -7.242035,-2.051909c-0.867627,-0.596282 -1.682135,-1.315327 -2.585176,-2.016834c1.611309,3.507537 3.452803,6.822161 5.312005,10.119246l-12.518627,0a93.137166,92.248243 0 0 0 5.312005,-10.136784l-0.31872,0.315679a13.917455,13.784624 0 0 1 -6.569181,3.665377a7.224328,7.155377 0 0 1 -6.14422,-1.157488a8.853342,8.768845 0 0 1 -3.116376,-5.682211a15.475644,15.32794 0 0 1 1.451949,-9.03191a44.266714,43.844222 0 0 1 5.010992,-8.137488a89.91455,89.056384 0 0 1 10.340704,-11.434573l0.283307,-0.280603l0.000002,-0.000001l-0.000001,0z" class="cls-2" stroke="null"/>
   </g>
  </g>
 </g>
</svg>
